<svg
  width="33"
  height="26"
  viewBox="0 0 33 26"
  fill="none"
  xmlns="http://www.w3.org/2000/svg"
>
  <path
    d="M29.1597 6.5C29.1597 6.8125 29.1597 7.0625 29.1597 7.375C29.1597 16.0625 22.5972 26 10.5347 26C6.78472 26 3.34722 24.9375 0.472222 23.0625C0.972222 23.125 1.47222 23.1875 2.03472 23.1875C5.09722 23.1875 7.90972 22.125 10.1597 20.375C7.28472 20.3125 4.84722 18.4375 4.03472 15.8125C4.47222 15.875 4.84722 15.9375 5.28472 15.9375C5.84722 15.9375 6.47222 15.8125 6.97222 15.6875C3.97222 15.0625 1.72222 12.4375 1.72222 9.25V9.1875C2.59722 9.6875 3.65972 9.9375 4.72222 10C2.90972 8.8125 1.78472 6.8125 1.78472 4.5625C1.78472 3.3125 2.09722 2.1875 2.65972 1.25C5.90972 5.1875 10.7847 7.8125 16.2222 8.125C16.0972 7.625 16.0347 7.125 16.0347 6.625C16.0347 3 18.9722 0.0625 22.5972 0.0625C24.4722 0.0625 26.1597 0.8125 27.4097 2.125C28.8472 1.8125 30.2847 1.25 31.5347 0.5C31.0347 2.0625 30.0347 3.3125 28.6597 4.125C29.9722 4 31.2847 3.625 32.4097 3.125C31.5347 4.4375 30.4097 5.5625 29.1597 6.5Z"
    fill="#151416"
  />
</svg>
